<svg width="1024" height="1024" viewBox="0 0 1024 1024" fill="none" xmlns="http://www.w3.org/2000/svg">
<rect x="103" y="103" width="819" height="819" rx="180" fill="#1C1832"/>
<path d="M600.759 430.807C585.036 467.03 550.67 557.751 436.935 601.987C309.82 651.427 231.522 594.392 231.522 594.392C284.439 624.772 394.838 655.152 514.536 536.553C559.419 492.082 569.82 450.087 569.82 450.087L600.759 430.807Z" fill="url(#paint0_linear_1_2)"/>
<path d="M600.759 430.807C585.036 467.029 550.67 557.751 436.935 601.987C309.82 651.427 231.522 594.392 231.522 594.392C231.522 594.392 251.302 647.557 338.032 656.32C353.966 657.93 409.632 663.218 486.64 625.356C528.23 604.908 610.986 554.855 646.914 550.574L732.629 231L440.486 515.521C499.827 491.567 600.759 430.807 600.759 430.807Z" fill="url(#paint1_linear_1_2)"/>
<path d="M669.23 563.428C726.036 554.368 771.683 583.292 794 618.345C719.95 580.955 647.421 613.087 545.982 674.432C439.409 738.881 312.673 745.708 230 629.446C230 629.446 313.687 695.296 417.155 669.174C520.622 643.051 588.586 576.29 669.23 563.428Z" fill="url(#paint2_linear_1_2)"/>
<path d="M587.572 668.005C667.114 618.576 748.86 606.076 789.435 635.872C705.241 632.951 693.576 676.184 600.759 715.912C537.25 743.096 418.676 752.718 378.101 735.776C453.673 735.776 510.478 715.912 587.572 668.005Z" fill="url(#paint3_linear_1_2)"/>
<path d="M600.759 430.807C585.036 467.029 550.67 557.751 436.935 601.987C309.82 651.427 231.522 594.392 231.522 594.392C231.522 594.392 251.302 647.557 338.032 656.32C353.966 657.93 381.144 659.826 424.255 647.557C490.191 628.793 536.537 571.607 557.647 541.227C578.758 510.847 732.629 231 732.629 231L440.485 515.521C499.827 491.567 600.759 430.807 600.759 430.807Z" fill="url(#paint4_linear_1_2)"/>
<defs>
<linearGradient id="paint0_linear_1_2" x1="584.022" y1="450.087" x2="417.762" y2="575.704" gradientUnits="userSpaceOnUse">
<stop stop-color="#134D9E"/>
<stop offset="1" stop-color="#1147A0"/>
</linearGradient>
<linearGradient id="paint1_linear_1_2" x1="721.471" y1="263.133" x2="482.031" y2="566.207" gradientUnits="userSpaceOnUse">
<stop offset="0.00169962" stop-color="#91FDFB"/>
<stop offset="1" stop-color="#0FA6E4"/>
</linearGradient>
<linearGradient id="paint2_linear_1_2" x1="808.709" y1="602.571" x2="460.571" y2="671.665" gradientUnits="userSpaceOnUse">
<stop stop-color="#7BFBF3"/>
<stop offset="1" stop-color="#1548CF"/>
</linearGradient>
<linearGradient id="paint3_linear_1_2" x1="815.81" y1="638.794" x2="523.494" y2="717.085" gradientUnits="userSpaceOnUse">
<stop stop-color="#7CFCF3"/>
<stop offset="1" stop-color="#1548CE"/>
</linearGradient>
<linearGradient id="paint4_linear_1_2" x1="732.629" y1="231" x2="339.339" y2="583.022" gradientUnits="userSpaceOnUse">
<stop offset="0.0868304" stop-color="#41F9E6"/>
<stop offset="0.920807" stop-color="#1346CE"/>
</linearGradient>
</defs>
</svg>
